<svg width="277" height="60" viewBox="0 0 277 60" fill="none" xmlns="http://www.w3.org/2000/svg">
<path d="M187.659 56.7687C187.298 56.7709 186.94 56.7012 186.607 56.5637C186.273 56.4225 185.972 56.2151 185.722 55.9543C185.455 55.6725 185.248 55.3411 185.112 54.9793C184.956 54.559 184.88 54.1139 184.888 53.6663C184.88 53.2151 184.956 52.7662 185.112 52.3422C185.249 51.9794 185.457 51.6464 185.722 51.3617C185.97 51.0992 186.272 50.8915 186.607 50.7523C186.941 50.6135 187.3 50.542 187.662 50.542C188.024 50.542 188.383 50.6135 188.717 50.7523C189.051 50.8903 189.351 51.0981 189.596 51.3617C189.864 51.6449 190.071 51.9783 190.207 52.3422C190.367 52.7651 190.445 53.2145 190.436 53.6663C190.445 54.1144 190.367 54.5601 190.207 54.9793C190.073 55.3422 189.865 55.674 189.596 55.9543C189.35 56.2162 189.05 56.4238 188.717 56.5637C188.382 56.7016 188.022 56.7713 187.659 56.7687ZM187.659 55.9377C187.905 55.9407 188.147 55.8836 188.365 55.7715C188.585 55.6643 188.777 55.5067 188.924 55.3117C189.084 55.096 189.203 54.854 189.277 54.597C189.442 53.9872 189.442 53.3454 189.277 52.7356C189.204 52.4748 189.085 52.229 188.924 52.0098C188.778 51.8116 188.586 51.6503 188.365 51.5389C188.152 51.4318 187.917 51.3745 187.678 51.3717C187.439 51.3688 187.203 51.4203 186.987 51.5223C186.766 51.6337 186.574 51.795 186.428 51.9932C186.267 52.2124 186.148 52.4581 186.075 52.719C185.91 53.3288 185.91 53.9706 186.075 54.5804C186.149 54.8374 186.268 55.0793 186.428 55.2951C186.575 55.4901 186.767 55.6477 186.987 55.7549C187.192 55.8735 187.422 55.9419 187.659 55.9543V55.9377Z" fill="#333333"/>
<path d="M192.323 56.6247V50.6913H193.146L193.235 51.5445H193.269C193.541 51.2712 193.846 51.0312 194.176 50.8298C194.514 50.6305 194.902 50.5306 195.296 50.5417C195.557 50.5195 195.82 50.5614 196.061 50.6639C196.303 50.7663 196.515 50.9261 196.678 51.129C197.009 51.6453 197.165 52.253 197.121 52.863V56.6247H196.113V52.9959C196.148 52.5733 196.052 52.1502 195.839 51.7827C195.738 51.6542 195.606 51.5529 195.456 51.4881C195.305 51.4232 195.14 51.3969 194.976 51.4115C194.686 51.406 194.4 51.485 194.154 51.6386C193.859 51.84 193.585 52.0701 193.336 52.3256V56.6247H192.323Z" fill="#333333"/>
<path d="M200.457 56.7687C200.301 56.7834 200.144 56.7597 200 56.6998C199.855 56.6399 199.728 56.5456 199.629 56.4252C199.446 56.1254 199.36 55.7775 199.383 55.428V47.9268H200.424V55.5C200.413 55.6205 200.443 55.7412 200.508 55.8435C200.532 55.8722 200.562 55.8954 200.596 55.9116C200.629 55.9279 200.666 55.9368 200.704 55.9377H200.799C200.842 55.9435 200.885 55.9435 200.928 55.9377L201.062 56.6911C200.988 56.7294 200.909 56.7555 200.827 56.7687C200.704 56.7804 200.58 56.7804 200.457 56.7687Z" fill="#333333"/>
<path d="M203.357 49.467C203.172 49.4718 202.992 49.4064 202.854 49.2841C202.788 49.2256 202.736 49.1537 202.701 49.0734C202.666 48.993 202.65 48.9062 202.652 48.8188C202.648 48.7312 202.665 48.644 202.699 48.5635C202.734 48.483 202.787 48.4112 202.854 48.3534C202.992 48.2327 203.173 48.1693 203.357 48.1761C203.54 48.1695 203.719 48.233 203.856 48.3534C203.922 48.4112 203.975 48.483 204.01 48.5635C204.045 48.644 204.061 48.7312 204.057 48.8188C204.06 48.9062 204.043 48.993 204.008 49.0734C203.973 49.1537 203.921 49.2256 203.856 49.2841C203.72 49.4065 203.541 49.472 203.357 49.467ZM202.837 56.6246V50.6913H203.85V56.6246H202.837Z" fill="#333333"/>
<path d="M206.179 56.6247V50.6913H207.019L207.103 51.5444H207.142C207.412 51.2686 207.717 51.0284 208.049 50.8298C208.387 50.6296 208.775 50.5296 209.169 50.5417C209.431 50.5195 209.695 50.5615 209.937 50.6639C210.179 50.7663 210.392 50.926 210.557 51.1289C210.884 51.647 211.037 52.2539 210.994 52.863V56.6247H209.986V52.9959C210.021 52.5733 209.926 52.1502 209.712 51.7827C209.608 51.65 209.472 51.546 209.316 51.481C209.16 51.4159 208.99 51.392 208.822 51.4115C208.529 51.4069 208.241 51.4857 207.993 51.6386C207.701 51.8416 207.429 52.0717 207.181 52.3256V56.6247H206.179Z" fill="#333333"/>
<path d="M215.669 56.7687C215.285 56.77 214.904 56.6966 214.549 56.5526C214.204 56.4162 213.893 56.2084 213.636 55.9432C213.367 55.6655 213.159 55.3353 213.026 54.9737C212.872 54.5548 212.797 54.1119 212.802 53.6663C212.796 53.2183 212.874 52.7731 213.032 52.3533C213.169 51.9914 213.374 51.6586 213.636 51.3727C213.875 51.1106 214.167 50.9011 214.493 50.7578C214.808 50.6155 215.149 50.5418 215.495 50.5417C215.845 50.5374 216.191 50.6034 216.514 50.7356C216.804 50.8605 217.061 51.0501 217.264 51.2896C217.475 51.549 217.632 51.8463 217.729 52.1649C217.839 52.5392 217.892 52.9276 217.886 53.3172C217.886 53.4225 217.886 53.5222 217.886 53.6275C217.883 53.7149 217.874 53.8019 217.858 53.8879H213.81C213.82 54.4488 214.037 54.9867 214.42 55.4003C214.601 55.5848 214.819 55.7295 215.06 55.825C215.301 55.9204 215.56 55.9645 215.82 55.9543C216.091 55.9571 216.36 55.9121 216.615 55.8213C216.86 55.7366 217.095 55.6252 217.315 55.4889L217.667 56.1482C217.39 56.3167 217.098 56.4595 216.794 56.5748C216.435 56.7091 216.053 56.7748 215.669 56.7687ZM213.782 53.1843H216.99C217.025 52.6951 216.886 52.2092 216.598 51.8104C216.465 51.6538 216.297 51.5298 216.108 51.4481C215.919 51.3664 215.713 51.3292 215.506 51.3395C215.297 51.3409 215.09 51.3823 214.896 51.4613C214.7 51.5482 214.521 51.6703 214.37 51.8214C214.211 51.9841 214.081 52.1712 213.984 52.3754C213.874 52.633 213.806 52.9059 213.782 53.1843Z" fill="#333333"/>
<path d="M222.443 59.1232V50.6913H223.283L223.367 51.3727H223.406C223.679 51.1438 223.977 50.9467 224.296 50.7855C224.611 50.6256 224.96 50.5421 225.315 50.5417C225.669 50.5346 226.019 50.6086 226.339 50.7578C226.634 50.8956 226.888 51.1053 227.078 51.3672C227.288 51.6543 227.441 51.9774 227.532 52.3201C227.637 52.7291 227.688 53.15 227.683 53.5721C227.691 54.0292 227.621 54.4844 227.476 54.9183C227.354 55.2859 227.164 55.6278 226.916 55.9266C226.694 56.1949 226.412 56.4091 226.093 56.5527C225.783 56.696 225.444 56.7698 225.102 56.7687C224.816 56.7665 224.533 56.7042 224.273 56.5859C223.977 56.4515 223.697 56.2842 223.439 56.0873V57.1233V59.1232H222.443ZM224.923 55.9266C225.161 55.9289 225.396 55.8718 225.606 55.7604C225.826 55.6501 226.018 55.4908 226.166 55.2951C226.328 55.0722 226.449 54.8228 226.524 54.5582C226.613 54.237 226.656 53.9051 226.653 53.5721C226.656 53.2727 226.627 52.9739 226.569 52.6802C226.519 52.4344 226.424 52.1997 226.289 51.9877C226.165 51.8015 225.995 51.6492 225.796 51.5445C225.572 51.4332 225.324 51.378 225.074 51.3838C224.803 51.3885 224.537 51.4609 224.301 51.5943C224.002 51.7622 223.722 51.9629 223.467 52.1927V55.3061C223.701 55.5091 223.968 55.672 224.257 55.7881C224.467 55.8815 224.693 55.9377 224.923 55.9543V55.9266Z" fill="#333333"/>
<path d="M229.598 56.6246V47.9268H230.611V50.2979L230.572 51.5167C230.847 51.2573 231.149 51.0271 231.473 50.8298C231.81 50.6278 232.199 50.5277 232.593 50.5417C232.855 50.5195 233.119 50.5615 233.361 50.6639C233.603 50.7663 233.816 50.926 233.981 51.1289C234.308 51.647 234.461 52.2539 234.418 52.863V56.6246H233.405V52.9959C233.438 52.5741 233.345 52.1519 233.136 51.7826C233.035 51.6546 232.903 51.5536 232.752 51.4887C232.602 51.4239 232.437 51.3973 232.274 51.4115C231.981 51.4069 231.694 51.4857 231.445 51.6386C231.152 51.8402 230.88 52.0703 230.633 52.3256V56.6246H229.598Z" fill="#333333"/>
<path d="M238.001 56.7687C237.542 56.7857 237.094 56.6293 236.747 56.3311C236.576 56.1724 236.443 55.9784 236.357 55.7629C236.271 55.5475 236.234 55.3158 236.249 55.0845C236.242 54.78 236.32 54.4793 236.474 54.2155C236.628 53.9517 236.852 53.7349 237.122 53.5887C237.997 53.1639 238.949 52.9171 239.921 52.863C239.923 52.6769 239.904 52.4911 239.865 52.309C239.834 52.1393 239.77 51.9773 239.675 51.8325C239.581 51.6901 239.452 51.5738 239.3 51.4946C239.11 51.4043 238.9 51.3606 238.69 51.3672C238.355 51.3657 238.024 51.4316 237.716 51.5611C237.429 51.6828 237.156 51.8312 236.898 52.0043L236.506 51.3062C236.832 51.1037 237.175 50.9294 237.531 50.7855C237.954 50.6154 238.407 50.5306 238.863 50.5362C239.163 50.51 239.465 50.557 239.742 50.6729C240.019 50.7888 240.263 50.9701 240.453 51.201C240.807 51.7259 240.979 52.3495 240.946 52.9793V56.6191H240.106L240.022 55.91H239.983C239.696 56.1424 239.385 56.3431 239.054 56.5083C238.729 56.6769 238.368 56.7662 238.001 56.7687ZM238.298 55.9654C238.581 55.9639 238.86 55.8935 239.11 55.7604C239.404 55.5971 239.677 55.398 239.921 55.1676V53.5056C239.495 53.5583 239.073 53.636 238.656 53.7383C238.369 53.8069 238.092 53.9131 237.833 54.0541C237.646 54.1524 237.487 54.2975 237.374 54.4751C237.28 54.6328 237.232 54.8129 237.234 54.9959C237.221 55.1334 237.242 55.2721 237.296 55.3996C237.349 55.5271 237.434 55.6396 237.542 55.7272C237.763 55.8797 238.028 55.9592 238.298 55.9543V55.9654Z" fill="#333333"/>
<path d="M243.146 56.6247V50.6913H243.98L244.07 51.7605H244.092C244.276 51.4161 244.532 51.1141 244.842 50.8741C245.114 50.6591 245.452 50.5419 245.8 50.5417C246.019 50.5376 246.236 50.5791 246.438 50.6636L246.253 51.5223C246.163 51.4926 246.072 51.4685 245.979 51.4503C245.876 51.44 245.773 51.44 245.671 51.4503C245.38 51.4657 245.101 51.5724 244.876 51.755C244.545 52.0405 244.296 52.4074 244.154 52.8187V56.6302L243.146 56.6247Z" fill="#333333"/>
<path d="M247.731 56.6247V50.6913H248.571L248.661 51.5445H248.694C248.944 51.2674 249.232 51.0268 249.551 50.8298C249.851 50.6389 250.201 50.5388 250.558 50.5417C250.942 50.5195 251.323 50.6248 251.639 50.8409C251.905 51.0591 252.1 51.3501 252.199 51.6774C252.478 51.3645 252.796 51.0872 253.145 50.852C253.449 50.6493 253.808 50.5413 254.175 50.5417C254.435 50.5224 254.697 50.5657 254.937 50.6679C255.176 50.7702 255.388 50.9284 255.552 51.129C255.885 51.6446 256.042 52.2525 256 52.863V56.6247H254.987V52.996C255.021 52.5741 254.927 52.1519 254.718 51.7827C254.621 51.656 254.493 51.5556 254.346 51.4908C254.199 51.4259 254.039 51.3987 253.878 51.4115C253.578 51.4549 253.289 51.5582 253.03 51.7154C252.772 51.8725 252.548 52.0802 252.372 52.3256V56.6247H251.37V52.996C251.404 52.5741 251.31 52.1519 251.101 51.7827C251.002 51.6555 250.872 51.555 250.724 51.4901C250.575 51.4253 250.412 51.3983 250.251 51.4115C249.95 51.4549 249.661 51.5582 249.403 51.7154C249.144 51.8725 248.92 52.0802 248.745 52.3256V56.6247H247.731Z" fill="#333333"/>
<path d="M259.65 56.7687C259.192 56.7841 258.744 56.6278 258.396 56.331C258.227 56.1717 258.094 55.9776 258.008 55.7623C257.922 55.547 257.884 55.3157 257.898 55.0845C257.892 54.7794 257.97 54.4784 258.125 54.2145C258.28 53.9507 258.506 53.7341 258.777 53.5887C259.652 53.1638 260.604 52.917 261.576 52.863C261.578 52.6768 261.559 52.4911 261.52 52.309C261.487 52.14 261.422 51.9785 261.33 51.8325C261.235 51.6913 261.106 51.5753 260.955 51.4946C260.765 51.4043 260.555 51.3606 260.345 51.3672C260.008 51.3661 259.675 51.4321 259.365 51.5611C259.081 51.6828 258.809 51.8312 258.553 52.0043L258.161 51.3062C258.484 51.1025 258.825 50.9282 259.18 50.7855C259.603 50.6158 260.056 50.531 260.513 50.5362C260.813 50.5101 261.116 50.557 261.394 50.6728C261.672 50.7887 261.917 50.97 262.108 51.201C262.459 51.727 262.632 52.3498 262.601 52.9793V56.6191H261.761L261.677 55.91H261.638C261.352 56.1428 261.043 56.3452 260.714 56.5139C260.385 56.682 260.021 56.7694 259.65 56.7687ZM259.947 55.9654C260.231 55.9646 260.51 55.8942 260.759 55.7604C261.055 55.5973 261.33 55.3982 261.576 55.1676V53.5056C261.156 53.5584 260.739 53.6361 260.328 53.7383C260.039 53.8068 259.76 53.913 259.499 54.0541C259.314 54.1539 259.158 54.2989 259.046 54.4751C258.952 54.6328 258.904 54.8129 258.906 54.9959C258.893 55.1334 258.914 55.2721 258.967 55.3996C259.021 55.5271 259.106 55.6396 259.214 55.7272C259.428 55.877 259.685 55.9564 259.947 55.9543V55.9654Z" fill="#333333"/>
<path d="M267.164 56.7687C266.78 56.7734 266.4 56.7038 266.044 56.5637C265.704 56.4283 265.398 56.2202 265.148 55.9543C264.884 55.6735 264.682 55.3414 264.555 54.9793C264.408 54.557 264.336 54.1128 264.342 53.6663C264.334 53.2142 264.414 52.7647 264.577 52.3422C264.718 51.9773 264.931 51.644 265.204 51.3616C265.463 51.0958 265.776 50.888 266.122 50.7522C266.478 50.6107 266.858 50.5392 267.242 50.5417C267.592 50.5326 267.939 50.6047 268.255 50.7522C268.522 50.8817 268.771 51.0456 268.994 51.2398L268.479 51.899C268.31 51.7489 268.121 51.6205 267.919 51.5168C267.717 51.4198 267.495 51.3705 267.27 51.3727C267.01 51.37 266.754 51.4269 266.52 51.5389C266.287 51.6475 266.084 51.8089 265.926 52.0098C265.751 52.2254 265.618 52.4716 265.534 52.7356C265.351 53.3428 265.351 53.9897 265.534 54.597C265.616 54.8563 265.745 55.0986 265.915 55.3117C266.063 55.5063 266.255 55.6638 266.475 55.7715C266.71 55.8844 266.969 55.9413 267.231 55.9377C267.497 55.943 267.761 55.882 267.998 55.7604C268.228 55.6482 268.443 55.5066 268.636 55.3394L269.078 56.0097C268.811 56.2425 268.506 56.4297 268.177 56.5637C267.856 56.6963 267.512 56.766 267.164 56.7687Z" fill="#333333"/>
<path d="M270.903 59.1731C270.777 59.1823 270.65 59.1823 270.523 59.1731C270.412 59.1516 270.303 59.1201 270.198 59.0789L270.4 58.2867L270.618 58.3421C270.696 58.3496 270.775 58.3496 270.853 58.3421C271.012 58.3481 271.171 58.3189 271.317 58.2566C271.463 58.1943 271.594 58.1005 271.698 57.982C271.93 57.7164 272.105 57.4074 272.214 57.0734L272.348 56.6357L269.941 50.6913H270.965L272.191 53.971L272.477 54.7964C272.583 55.0845 272.678 55.3505 272.768 55.6441H272.818C272.908 55.3782 272.997 55.0901 273.076 54.802C273.154 54.5139 273.244 54.248 273.322 53.971L274.397 50.6913H275.382L273.143 57.1122C273.044 57.3919 272.924 57.6641 272.785 57.9266C272.665 58.1682 272.506 58.389 272.314 58.5803C272.136 58.7606 271.928 58.9087 271.698 59.0179C271.448 59.1259 271.177 59.1788 270.903 59.1731Z" fill="#333333"/>
<path d="M72.6771 42.8189V14.4484H89.1983V17.4732H76.3217V26.3816H87.2052V29.4563H76.3049V39.7497H89.6349V42.8189H72.6771Z" fill="#42E5B3"/>
<path d="M115.075 49.9544C113.84 49.9656 112.61 49.7976 111.424 49.4558C109.313 48.8585 107.446 47.6178 106.089 45.9102C105.433 45.0887 104.896 44.1806 104.493 43.2122C102.976 43.0286 101.516 42.5262 100.211 41.7386C98.9141 40.9452 97.7926 39.9013 96.913 38.6694C95.9535 37.3076 95.2359 35.7938 94.7912 34.1931C94.2803 32.3394 94.0316 30.4247 94.0522 28.5034C94.0211 26.4288 94.3234 24.3624 94.9479 22.3817C95.4729 20.7057 96.3272 19.1487 97.4617 17.8001C98.5102 16.562 99.8318 15.5784 101.325 14.9248C102.89 14.2475 104.582 13.9076 106.291 13.9276C108 13.9101 109.693 14.2618 111.251 14.9581C112.745 15.6295 114.072 16.6188 115.136 17.8555C116.282 19.2 117.144 20.7578 117.672 22.4371C118.297 24.4083 118.599 26.4655 118.568 28.5311C118.588 30.4221 118.345 32.3068 117.846 34.1321C117.422 35.7139 116.729 37.2127 115.797 38.5641C114.94 39.7863 113.848 40.8293 112.583 41.6333C111.322 42.4343 109.908 42.9716 108.429 43.2122C109.061 44.4071 110.056 45.3759 111.273 45.9822C112.575 46.621 114.013 46.9403 115.466 46.913C116.028 46.917 116.59 46.88 117.146 46.8022C117.596 46.7361 118.041 46.6417 118.478 46.5196L119.178 49.2896C118.61 49.4942 118.023 49.6462 117.426 49.7439C116.65 49.8818 115.863 49.9523 115.075 49.9544ZM106.291 40.3536C107.499 40.3716 108.692 40.0898 109.762 39.5336C110.828 38.9596 111.741 38.1431 112.426 37.1514C113.219 36.014 113.804 34.7485 114.156 33.4119C114.583 31.8105 114.788 30.1593 114.767 28.5034C114.787 26.8968 114.582 25.2951 114.156 23.7445C113.807 22.4532 113.22 21.2363 112.426 20.1546C111.724 19.2075 110.812 18.4308 109.762 17.8832C108.68 17.3584 107.492 17.0855 106.288 17.0855C105.083 17.0855 103.895 17.3584 102.814 17.8832C101.763 18.4308 100.852 19.2075 100.149 20.1546C99.355 21.2363 98.7686 22.4532 98.419 23.7445C97.9933 25.2951 97.788 26.8968 97.8088 28.5034C97.7874 30.1593 97.9927 31.8105 98.419 33.4119C98.7714 34.7485 99.3568 36.014 100.149 37.1514C100.834 38.1431 101.747 38.9596 102.814 39.5336C103.886 40.0887 105.081 40.3705 106.291 40.3536Z" fill="#42E5B3"/>
<path d="M134.921 43.3396C133.533 43.3505 132.153 43.1372 130.834 42.7081C129.582 42.3014 128.454 41.5887 127.554 40.6361C126.571 39.5418 125.838 38.2514 125.404 36.8523C124.833 34.9873 124.566 33.0442 124.614 31.0962V14.4484H128.203V31.1848C128.184 32.6277 128.372 34.0659 128.763 35.4562C129.037 36.4673 129.521 37.4107 130.185 38.2262C130.749 38.8961 131.478 39.4112 132.301 39.722C133.142 40.0273 134.031 40.1812 134.927 40.1763C135.835 40.1835 136.738 40.0297 137.592 39.722C138.421 39.4078 139.158 38.8936 139.736 38.2262C140.412 37.4161 140.902 36.4712 141.175 35.4562C141.558 34.0613 141.735 32.6189 141.701 31.1737V14.4484H145.195V31.0962C145.244 33.0439 144.98 34.987 144.411 36.8523C143.974 38.2537 143.234 39.5447 142.244 40.6361C141.353 41.5865 140.235 42.2991 138.991 42.7081C137.679 43.1386 136.304 43.352 134.921 43.3396Z" fill="#42E5B3"/>
<path d="M152.92 42.8189V14.4484H156.548V42.8189H152.92Z" fill="#42E5B3"/>
<path d="M164.414 42.8189V14.4484H168.042V39.7497H180.588V42.8189H164.414Z" fill="#42E5B3"/>
<path d="M185.655 42.8189V14.4484H189.283V42.8189H185.655Z" fill="#42E5B3"/>
<path d="M196.583 42.8189V14.6201H203.621L208.206 27.1461C208.497 27.9845 208.775 28.8414 209.04 29.7167C209.297 30.5976 209.6 31.4729 209.869 32.3372H210.042C210.333 31.4729 210.604 30.5994 210.854 29.7167C211.104 28.834 211.373 27.9772 211.66 27.1461L216.139 14.6035H223.154V42.8023H217.298V32.4812C217.298 31.7887 217.326 31.0242 217.387 30.1876C217.449 29.3511 217.516 28.5256 217.606 27.6614C217.695 26.7971 217.779 25.9994 217.869 25.1517C217.958 24.3041 218.042 23.5728 218.126 22.8803H217.953L215.635 29.5838L211.57 40.3536H208.032L203.968 29.5838L201.695 22.8803H201.544C201.628 23.5728 201.717 24.3318 201.807 25.1517C201.896 25.9717 201.98 26.8137 202.07 27.6614C202.159 28.509 202.227 29.3566 202.288 30.1876C202.35 31.0186 202.372 31.7887 202.372 32.4812V42.8189H196.583Z" fill="#FE4690"/>
<path d="M229.883 42.8189V14.6201H247.72V19.9829H236.31V25.6503H246.013V30.9688H236.31V37.4561H248.157V42.8189H229.883Z" fill="#FE4690"/>
<path d="M253.834 42.8189V14.6201H261.879C263.876 14.593 265.867 14.8695 267.779 15.4401C269.442 15.9477 270.972 16.8122 272.258 17.9719C273.552 19.1769 274.54 20.6669 275.142 22.3208C275.856 24.3342 276.198 26.4587 276.149 28.5921C276.202 30.7367 275.868 32.8734 275.164 34.9022C274.567 36.5721 273.597 38.0871 272.325 39.3342C271.073 40.5152 269.572 41.4081 267.931 41.9491C266.09 42.5466 264.163 42.8386 262.226 42.8133L253.834 42.8189ZM260.261 37.6722H261.487C262.612 37.6854 263.732 37.5246 264.807 37.1958C265.766 36.8968 266.637 36.37 267.343 35.6612C268.091 34.8712 268.65 33.9244 268.978 32.8911C269.408 31.5067 269.609 30.0623 269.571 28.6143C269.61 27.1789 269.409 25.747 268.978 24.3761C268.657 23.3547 268.097 22.4227 267.343 21.656C266.634 20.968 265.762 20.467 264.807 20.1989C263.727 19.8989 262.609 19.7534 261.487 19.7668H260.261V37.6722Z" fill="#FE4690"/>
<path d="M12.913 21.7169C9.97112 26.7969 8.66858 32.6453 9.17989 38.4783C9.69121 44.3114 11.9919 49.8505 15.7738 54.3533C12.5512 52.7027 9.66885 50.4705 7.27526 47.7717C6.68751 46.2055 6.24161 44.5907 5.94282 42.9463C4.75797 36.4806 5.84254 29.8084 9.01659 24.0364C12.1906 18.2645 17.2634 13.7399 23.3934 11.213C20.1912 13.0765 17.3803 15.5308 15.1132 18.4428C14.304 19.4824 13.5688 20.5764 12.913 21.7169Z" fill="url(#paint0_linear)"/>
<path d="M41.6893 2.84757C38.942 2.1884 36.1167 1.90323 33.2915 1.99995H33.0172C28.9302 2.16948 24.9171 3.13449 21.2072 4.8398C17.4973 6.54511 14.1635 8.95728 11.3964 11.9384C8.62919 14.9195 6.48295 18.4111 5.08032 22.2136C3.6777 26.016 3.04621 30.0548 3.22195 34.0989C3.32414 36.4176 3.68654 38.7179 4.30247 40.9574C4.92132 43.1903 5.7947 45.3463 6.90577 47.3839C3.3166 43.1985 1.01237 38.0844 0.265053 32.6452C-0.482261 27.206 0.358539 21.6687 2.68821 16.687C5.01788 11.7053 8.73918 7.48713 13.4128 4.53034C18.0865 1.57355 23.5175 0.00158655 29.0647 0L29.3222 0C33.6067 0.0322452 37.8306 1.00481 41.6893 2.84757Z" fill="url(#paint1_linear)"/>
<path d="M50.7365 9.59534C50.7365 9.73938 50.7365 9.88896 50.6861 10.033C50.0054 15.2289 47.4346 20.0013 43.4549 23.4571C39.4752 26.9129 34.3594 28.8153 29.0647 28.8082C25.3899 28.8866 21.8811 30.3377 19.2429 32.8703C16.6048 35.4029 15.0325 38.8294 14.8418 42.4618C14.6512 46.0941 15.8562 49.6633 18.2151 52.4528C20.5739 55.2422 23.9119 57.0453 27.5587 57.5C23.955 57.3221 20.417 56.4765 17.1286 55.007C16.6752 54.802 16.2217 54.5859 15.7794 54.3588C14.0667 52.3236 12.6462 50.0641 11.5581 47.6443C10.5733 45.4492 9.87532 43.1389 9.48108 40.7691C8.37069 34.2168 9.5831 27.4861 12.913 21.7169C13.5688 20.5764 14.304 19.4824 15.1132 18.4428C17.3797 15.5418 20.1866 13.0971 23.3822 11.2407C17.2545 13.7637 12.182 18.2828 9.00521 24.0491C5.82841 29.8155 4.73805 36.4828 5.91483 42.9463C6.22271 44.5916 6.67799 46.2064 7.27526 47.7717C7.1577 47.6443 7.04573 47.5169 6.93376 47.3839C5.82268 45.3463 4.9493 43.1903 4.33045 40.9575C3.70506 38.719 3.33327 36.4187 3.22194 34.0989C3.04689 30.0575 3.678 26.0215 5.07922 22.2214C6.48044 18.4214 8.62433 14.9316 11.3885 11.9514C14.1527 8.97128 17.4829 6.55907 21.1892 4.85253C24.8955 3.146 28.9051 2.17858 32.9892 2.0055H33.2635C36.0887 1.90877 38.914 2.19394 41.6613 2.85312C45.1045 4.48881 48.1883 6.77986 50.7365 9.59534Z" fill="url(#paint2_linear)"/>
<path d="M51.929 11.0025C51.8856 12.0124 51.7677 13.0178 51.5763 14.0107C50.6927 18.6842 48.3084 22.9506 44.7781 26.1756C41.2477 29.4006 36.7597 31.412 31.9815 31.9106C29.4193 32.1867 26.9734 33.1164 24.8832 34.6087C22.7931 36.101 21.1303 38.1047 20.0576 40.4238C18.9848 42.7428 18.5389 45.2977 18.7635 47.8385C18.9881 50.3793 19.8754 52.8188 21.3387 54.9183C21.5347 55.1953 21.7418 55.4723 21.9546 55.7327C19.1686 54.1648 16.9835 51.7308 15.7382 48.8085C14.493 45.8861 14.2572 42.6387 15.0675 39.5703C15.8779 36.5018 17.6889 33.7837 20.2198 31.8378C22.7506 29.8919 25.8597 28.8269 29.0647 28.8082C34.3594 28.8153 39.4753 26.9129 43.455 23.4571C47.4346 20.0013 50.0054 15.2289 50.6861 10.033C50.6861 9.88896 50.7253 9.73938 50.7365 9.59534C50.9828 9.86126 51.218 10.1493 51.4475 10.4097C51.6771 10.6701 51.7722 10.8031 51.929 11.0025Z" fill="url(#paint3_linear)"/>
<path d="M58.1377 28.7639C58.1378 36.135 55.2786 43.225 50.1501 48.571C45.0217 53.9171 38.0152 57.1112 30.5763 57.4944C30.078 57.4944 29.5797 57.5332 29.0759 57.5332C28.572 57.5332 28.0793 57.5332 27.5811 57.4944C25.6123 57.2946 23.7064 56.6949 21.9825 55.7327C21.7698 55.4668 21.5627 55.1787 21.3667 54.9183C19.9035 52.8192 19.0161 50.3801 18.7913 47.8397C18.5664 45.2994 19.0118 42.7448 20.0839 40.4259C21.156 38.107 22.8181 36.1032 24.9075 34.6105C26.9969 33.1179 29.4421 32.1876 32.0039 31.9106C36.7821 31.412 41.2701 29.4006 44.8004 26.1756C48.3308 22.9506 50.7151 18.6842 51.5987 14.0108C51.7901 13.0179 51.908 12.0124 51.9514 11.0025C53.4073 12.836 54.6295 14.84 55.5904 16.9691C55.8591 17.5675 56.1111 18.1769 56.3406 18.7974C57.5341 21.9873 58.1427 25.3623 58.1377 28.7639Z" fill="url(#paint4_linear)"/>
<path d="M34.1482 40.4422H31.612V37.9382C31.612 37.4136 31.4015 36.9105 31.0266 36.5396C30.6518 36.1687 30.1434 35.9604 29.6134 35.9604H28.1577C27.6277 35.9604 27.1193 36.1687 26.7445 36.5396C26.3696 36.9105 26.1591 37.4136 26.1591 37.9382V40.4422H23.6174C23.0873 40.4422 22.5789 40.6506 22.2041 41.0215C21.8293 41.3924 21.6187 41.8955 21.6187 42.42V43.8605C21.6187 44.1199 21.6704 44.3768 21.7709 44.6165C21.8714 44.8561 22.0188 45.0738 22.2044 45.257C22.3901 45.4402 22.6105 45.5854 22.8529 45.6842C23.0954 45.783 23.3551 45.8334 23.6174 45.8327H26.1591V48.3645C26.1591 48.889 26.3696 49.3921 26.7445 49.763C27.1193 50.1339 27.6277 50.3423 28.1577 50.3423H29.6134C30.1434 50.3423 30.6518 50.1339 31.0266 49.763C31.4015 49.3921 31.612 48.889 31.612 48.3645V45.8438H34.1482C34.4104 45.8445 34.6701 45.794 34.9126 45.6953C35.155 45.5965 35.3754 45.4513 35.5611 45.2681C35.7468 45.0849 35.8941 44.8672 35.9946 44.6276C36.0951 44.3879 36.1468 44.131 36.1468 43.8715V42.4311C36.1483 42.1705 36.0977 41.9121 35.9979 41.6708C35.8981 41.4296 35.7511 41.2103 35.5654 41.0254C35.3797 40.8406 35.1588 40.6939 34.9156 40.5939C34.6724 40.4938 34.4116 40.4422 34.1482 40.4422Z" fill="#42E5B3"/>
<defs>
<linearGradient id="paint0_linear" x1="17.2126" y1="16.1271" x2="10.5612" y2="45.2373" gradientUnits="userSpaceOnUse">
<stop offset="0.18" stop-color="#FD4690"/>
<stop offset="0.39" stop-color="#E53281"/>
<stop offset="0.64" stop-color="#CD1F73"/>
<stop offset="0.8" stop-color="#C4186E"/>
</linearGradient>
<linearGradient id="paint1_linear" x1="32.3958" y1="-5.09129" x2="-8.29048" y2="53.7738" gradientUnits="userSpaceOnUse">
<stop offset="0.1" stop-color="#42E5B3"/>
<stop offset="0.66" stop-color="#0EAE9E"/>
</linearGradient>
<linearGradient id="paint2_linear" x1="32.3062" y1="5.1467" x2="14.6364" y2="53.1283" gradientUnits="userSpaceOnUse">
<stop offset="0.25" stop-color="#42E5B3"/>
<stop offset="1" stop-color="#0EAE9E"/>
</linearGradient>
<linearGradient id="paint3_linear" x1="11.8829" y1="58.8628" x2="54.551" y2="-4.59373" gradientUnits="userSpaceOnUse">
<stop offset="0.13" stop-color="#FE4690"/>
<stop offset="0.23" stop-color="#F73B90"/>
<stop offset="0.49" stop-color="#E82391"/>
<stop offset="0.65" stop-color="#E21A91"/>
</linearGradient>
<linearGradient id="paint4_linear" x1="23.858" y1="58.4972" x2="67.2132" y2="2.49988" gradientUnits="userSpaceOnUse">
<stop offset="0.29" stop-color="#FE4690"/>
<stop offset="0.43" stop-color="#F73B90"/>
<stop offset="0.78" stop-color="#E82391"/>
<stop offset="1" stop-color="#E21A91"/>
</linearGradient>
</defs>
</svg>
